# xmcd CD database file
#
# Track frame offsets:
#	183
#	9250
#	21930
#	41513
#	57510
#	83358
#	97888
#	120105
#	134483
#	149685
#	168405
#	178533
#	198900
#	207653
#	224700
#	236948
#
# Disc length: 3347 seconds
#
# Revision: 1
# Processed by: cddbd v1.5.2PL0 Copyright (c) Steve Scherf et al.
# Submitted via: CDex 1.51
#
DISCID=e20d1110
DTITLE=M.Larrieu, M.Mercelli - Bach W.F. e J.C. - Trii e duetti per flauto
DYEAR=1975
DGENRE=Baroque
TTITLE0=I Andante - Trio I in Re magg. - Bach W.F.
TTITLE1=II Allegro - Trio I in Re magg. - Bach W.F.
TTITLE2=III Vivace - Trio I in Re magg. - Bach W.F.
TTITLE3=I Allegro ma non tanto - Trio II in Re magg. - Bach W.F.
TTITLE4=II Larghetto - Trio II in Re magg. - Bach W.F.
TTITLE5=III Vivace - Trio II in Re magg. - Bach W.F.
TTITLE6=I Allegro - Trio III in la min. - Bach W.F.
TTITLE7=I Allegro - Duetto III in Mi bem. magg. - Bach W.F.
TTITLE8=II Adagio ma non troppo - Duetto III in Mi bem. magg. - Bach W.F.
TTITLE9=III Presto - Duetto III in Mi bem. magg. - Bach W.F.
TTITLE10=I Un poco Allegro - Duetto IV in fa min. - Bach W.F.
TTITLE11=II Largo - Duetto IV in fa min. - Bach W.F.
TTITLE12=III Vivace - Duetto IV in fa min. - Bach W.F.
TTITLE13=I Allegro assai - Trio in Sol magg. - Bach J.C.
TTITLE14=II Larghetto - Trio in Sol magg. - Bach J.C.
TTITLE15=III Vivace - Trio in Sol magg. - Bach J.C.
EXTD=YEAR: 1975
EXTT0=
EXTT1=
EXTT2=
EXTT3=
EXTT4=
EXTT5=
EXTT6=
EXTT7=
EXTT8=
EXTT9=
EXTT10=
EXTT11=
EXTT12=
EXTT13=
EXTT14=
EXTT15=
PLAYORDER=
